<?xml version="1.0" encoding="UTF-8" standalone="no"?>
<svg
   xmlns:dc="http://purl.org/dc/elements/1.1/"
   xmlns:cc="http://creativecommons.org/ns#"
   xmlns:rdf="http://www.w3.org/1999/02/22-rdf-syntax-ns#"
   xmlns:svg="http://www.w3.org/2000/svg"
   xmlns="http://www.w3.org/2000/svg"
   id="svg4822"
   viewBox="0.000000 -35.560000 40.640000 35.560000"
   height="35.560000mm"
   width="40.640000mm"
   version="1.1">
  <metadata
     id="metadata4826">
    <rdf:RDF>
      <cc:Work
         rdf:about="">
        <dc:format>image/svg+xml</dc:format>
        <dc:type
           rdf:resource="http://purl.org/dc/dcmitype/StillImage" />
        <dc:title>C:/Users/John/Dropbox/Application Data Files/EAGLE/projects/ZL3TIL Tone Generator V1/ToneGeneratorSMD_V1viii.brd</dc:title>
      </cc:Work>
    </rdf:RDF>
  </metadata>
  <title
     id="title4673">C:/Users/John/Dropbox/Application Data Files/EAGLE/projects/ZL3TIL Tone Generator V1/ToneGeneratorSMD_V1viii.brd</title>
  <desc
     id="desc4675">generated by eagle2svg 1.4, </desc>
  <defs
     id="defs4679">
    <style
       id="style4677"
       type="text/css"><![CDATA[
path.l31 {stroke:#505050; fill:none; }
line.l31 {stroke:#505050; fill:none; }
circle.l31 {stroke:#505050; fill:none; }
circle.j31 {fill:#505050; }
rect.l31 {fill:#505050; }
text.l31 {font-family:sans-serif; fill:#505050; }
polygon.l31 {fill:#505050; }
circle.j0 {fill:#000000; }
]]></style>
  </defs>
  <g
     id="g4687">
    <title
       id="title4681">PART C1</title>
    <rect
       class="l31"
       x="-0.69499999"
       y="-0.47999999"
       width="1.39"
       height="0.95999998"
       rx="0.000000"
       transform="rotate(-180,11.43,-12.93)"
       id="rect4683"
       style="fill:#505050" />
    <rect
       class="l31"
       x="-0.69499999"
       y="-0.47999999"
       width="1.39"
       height="0.95999998"
       rx="0.000000"
       transform="rotate(-180,11.43,-13.74)"
       id="rect4685"
       style="fill:#505050" />
  </g>
  <g
     id="g4695">
    <title
       id="title4689">PART C2</title>
    <rect
       class="l31"
       x="-0.73500001"
       y="-0.48500001"
       width="1.47"
       height="0.97000003"
       rx="0.000000"
       transform="rotate(-180,8.763,-12.92)"
       id="rect4691"
       style="fill:#505050" />
    <rect
       class="l31"
       x="-0.73500001"
       y="-0.48500001"
       width="1.47"
       height="0.97000003"
       rx="0.000000"
       transform="rotate(-180,8.763,-13.75)"
       id="rect4693"
       style="fill:#505050" />
  </g>
  <g
     id="g4703">
    <title
       id="title4697">PART C3</title>
    <rect
       class="l31"
       x="-0.64999998"
       y="-0.75"
       width="1.3"
       height="1.5"
       rx="0.000000"
       transform="rotate(-90,-0.8585,-15.9715)"
       id="rect4699"
       style="fill:#505050" />
    <rect
       class="l31"
       x="-0.64999998"
       y="-0.75"
       width="1.3"
       height="1.5"
       rx="0.000000"
       transform="rotate(-90,-1.8085,-16.9215)"
       id="rect4701"
       style="fill:#505050" />
  </g>
  <g
     id="g4711">
    <title
       id="title4705">PART C4</title>
    <rect
       class="l31"
       x="-0.64999998"
       y="-0.75"
       width="1.3"
       height="1.5"
       rx="0.000000"
       transform="rotate(90,22.065,3.208)"
       id="rect4707"
       style="fill:#505050" />
    <rect
       class="l31"
       x="-0.64999998"
       y="-0.75"
       width="1.3"
       height="1.5"
       rx="0.000000"
       transform="rotate(90,21.115,4.158)"
       id="rect4709"
       style="fill:#505050" />
  </g>
  <g
     id="g4731">
    <title
       id="title4713">PART J1</title>
    <rect
       class="l31"
       x="-0.74949998"
       y="-0.74949998"
       width="1.499"
       height="1.499"
       rx="0.74949998"
       transform="rotate(90,14.605,1.905)"
       id="rect4715"
       style="fill:#505050" />
    <rect
       class="l31"
       x="-0.74949998"
       y="-0.74949998"
       width="1.499"
       height="1.499"
       rx="0.74949998"
       transform="rotate(90,13.335,3.175)"
       id="rect4717"
       style="fill:#505050" />
    <rect
       class="l31"
       x="-0.74949998"
       y="-0.74949998"
       width="1.499"
       height="1.499"
       rx="0.74949998"
       transform="rotate(90,12.065,4.445)"
       id="rect4719"
       style="fill:#505050" />
    <rect
       class="l31"
       x="-0.74949998"
       y="-0.74949998"
       width="1.499"
       height="1.499"
       rx="0.74949998"
       transform="rotate(90,10.795,5.715)"
       id="rect4721"
       style="fill:#505050" />
    <rect
       class="l31"
       x="-0.74949998"
       y="-0.74949998"
       width="1.499"
       height="1.499"
       rx="0.74949998"
       transform="rotate(90,14.605,9.525)"
       id="rect4723"
       style="fill:#505050" />
    <rect
       class="l31"
       x="-0.74949998"
       y="-0.74949998"
       width="1.499"
       height="1.499"
       rx="0.74949998"
       transform="rotate(90,15.875,8.255)"
       id="rect4725"
       style="fill:#505050" />
    <rect
       class="l31"
       x="-0.74949998"
       y="-0.74949998"
       width="1.499"
       height="1.499"
       rx="0.74949998"
       transform="rotate(90,17.145,6.985)"
       id="rect4727"
       style="fill:#505050" />
    <rect
       class="l31"
       x="-0.74949998"
       y="-0.74949998"
       width="1.499"
       height="1.499"
       rx="0.74949998"
       transform="rotate(90,18.415,5.715)"
       id="rect4729"
       style="fill:#505050" />
  </g>
  <g
     id="g4751">
    <title
       id="title4733">PART J2</title>
    <rect
       class="l31"
       x="-1.48"
       y="-0.63499999"
       width="2.96"
       height="1.27"
       rx="0.000000"
       transform="rotate(-180,2.275,-4.445)"
       id="rect4735"
       style="fill:#505050" />
    <rect
       class="l31"
       x="-1.48"
       y="-0.63499999"
       width="2.96"
       height="1.27"
       rx="0.000000"
       transform="rotate(-180,4.075,-5.715)"
       id="rect4737"
       style="fill:#505050" />
    <rect
       class="l31"
       x="-1.48"
       y="-0.63499999"
       width="2.96"
       height="1.27"
       rx="0.000000"
       transform="rotate(-180,2.275,-6.985)"
       id="rect4739"
       style="fill:#505050" />
    <rect
       class="l31"
       x="-1.48"
       y="-0.63499999"
       width="2.96"
       height="1.27"
       rx="0.000000"
       transform="rotate(-180,4.075,-8.255)"
       id="rect4741"
       style="fill:#505050" />
    <rect
       class="l31"
       x="-1.48"
       y="-0.63499999"
       width="2.96"
       height="1.27"
       rx="0.000000"
       transform="rotate(-180,2.275,-9.525)"
       id="rect4743"
       style="fill:#505050" />
    <rect
       class="l31"
       x="-1.48"
       y="-0.63499999"
       width="2.96"
       height="1.27"
       rx="0.000000"
       transform="rotate(-180,4.075,-10.795)"
       id="rect4745"
       style="fill:#505050" />
    <rect
       class="l31"
       x="-1.48"
       y="-0.63499999"
       width="2.96"
       height="1.27"
       rx="0.000000"
       transform="rotate(-180,2.275,-12.065)"
       id="rect4747"
       style="fill:#505050" />
    <rect
       class="l31"
       x="-1.48"
       y="-0.63499999"
       width="2.96"
       height="1.27"
       rx="0.000000"
       transform="rotate(-180,4.075,-13.335)"
       id="rect4749"
       style="fill:#505050" />
  </g>
  <g
     id="g4771">
    <title
       id="title4753">PART J3</title>
    <rect
       class="l31"
       x="-1.48"
       y="-0.63499999"
       width="2.96"
       height="1.27"
       rx="0.000000"
       transform="rotate(-180,16.245,-4.445)"
       id="rect4755"
       style="fill:#505050" />
    <rect
       class="l31"
       x="-1.48"
       y="-0.63499999"
       width="2.96"
       height="1.27"
       rx="0.000000"
       transform="rotate(-180,18.045,-5.715)"
       id="rect4757"
       style="fill:#505050" />
    <rect
       class="l31"
       x="-1.48"
       y="-0.63499999"
       width="2.96"
       height="1.27"
       rx="0.000000"
       transform="rotate(-180,16.245,-6.985)"
       id="rect4759"
       style="fill:#505050" />
    <rect
       class="l31"
       x="-1.48"
       y="-0.63499999"
       width="2.96"
       height="1.27"
       rx="0.000000"
       transform="rotate(-180,18.045,-8.255)"
       id="rect4761"
       style="fill:#505050" />
    <rect
       class="l31"
       x="-1.48"
       y="-0.63499999"
       width="2.96"
       height="1.27"
       rx="0.000000"
       transform="rotate(-180,16.245,-9.525)"
       id="rect4763"
       style="fill:#505050" />
    <rect
       class="l31"
       x="-1.48"
       y="-0.63499999"
       width="2.96"
       height="1.27"
       rx="0.000000"
       transform="rotate(-180,18.045,-10.795)"
       id="rect4765"
       style="fill:#505050" />
    <rect
       class="l31"
       x="-1.48"
       y="-0.63499999"
       width="2.96"
       height="1.27"
       rx="0.000000"
       transform="rotate(-180,16.245,-12.065)"
       id="rect4767"
       style="fill:#505050" />
    <rect
       class="l31"
       x="-1.48"
       y="-0.63499999"
       width="2.96"
       height="1.27"
       rx="0.000000"
       transform="rotate(-180,18.045,-13.335)"
       id="rect4769"
       style="fill:#505050" />
  </g>
  <g
     id="g4779">
    <title
       id="title4773">PART R1</title>
    <rect
       class="l31"
       x="-0.69849998"
       y="-0.50800002"
       width="1.397"
       height="1.016"
       rx="0.000000"
       transform="rotate(-90,-4.2799,-18.5801)"
       id="rect4775"
       style="fill:#505050" />
    <rect
       class="l31"
       x="-0.69849998"
       y="-0.50800002"
       width="1.397"
       height="1.016"
       rx="0.000000"
       transform="rotate(-90,-3.3401,-19.5199)"
       id="rect4777"
       style="fill:#505050" />
  </g>
  <g
     id="g4787">
    <title
       id="title4781">PART R2</title>
    <rect
       class="l31"
       x="-0.69849998"
       y="-0.50800002"
       width="1.397"
       height="1.016"
       rx="0.000000"
       transform="rotate(-90,0.4826,-23.3426)"
       id="rect4783"
       style="fill:#505050" />
    <rect
       class="l31"
       x="-0.69849998"
       y="-0.50800002"
       width="1.397"
       height="1.016"
       rx="0.000000"
       transform="rotate(-90,1.4224,-24.2824)"
       id="rect4785"
       style="fill:#505050" />
  </g>
  <g
     id="g4795">
    <title
       id="title4789">PART R3</title>
    <rect
       class="l31"
       x="-0.69849998"
       y="-0.50800002"
       width="1.397"
       height="1.016"
       rx="0.000000"
       transform="rotate(-180,8.6995,-15.3416)"
       id="rect4791"
       style="fill:#505050" />
    <rect
       class="l31"
       x="-0.69849998"
       y="-0.50800002"
       width="1.397"
       height="1.016"
       rx="0.000000"
       transform="rotate(-180,8.6995,-16.2814)"
       id="rect4793"
       style="fill:#505050" />
  </g>
  <g
     id="g4803">
    <title
       id="title4797">PART R4</title>
    <rect
       class="l31"
       x="-0.69849998"
       y="-0.50800002"
       width="1.397"
       height="1.016"
       rx="0.000000"
       transform="rotate(-180,10.16,-10.7696)"
       id="rect4799"
       style="fill:#505050" />
    <rect
       class="l31"
       x="-0.69849998"
       y="-0.50800002"
       width="1.397"
       height="1.016"
       rx="0.000000"
       transform="rotate(-180,10.16,-11.7094)"
       id="rect4801"
       style="fill:#505050" />
  </g>
  <g
     id="g4811">
    <title
       id="title4805">PART R5</title>
    <rect
       class="l31"
       x="-0.69849998"
       y="-0.50800002"
       width="1.397"
       height="1.016"
       rx="0.000000"
       transform="rotate(-180,11.43,-15.3416)"
       id="rect4807"
       style="fill:#505050" />
    <rect
       class="l31"
       x="-0.69849998"
       y="-0.50800002"
       width="1.397"
       height="1.016"
       rx="0.000000"
       transform="rotate(-180,11.43,-16.2814)"
       id="rect4809"
       style="fill:#505050" />
  </g>
  <rect
     ry="2.0000012"
     rx="2.0000012"
     y="-35.760059"
     x="-0.17791073"
     height="35.997272"
     width="41.156685"
     id="rect4828"
     style="fill:none;fill-opacity:0.9;stroke:#0000fa;stroke-width:0.89999998;stroke-linejoin:round;stroke-miterlimit:4;stroke-dasharray:none;stroke-opacity:1" />
</svg>
